<svg xmlns="http://www.w3.org/2000/svg" width="820" height="520" viewBox="0 0 820 520" role="img">
<rect width="100%" height="100%" fill="#ffffff"/>
<text x="34.00" y="42.00" font-family="Arial, sans-serif" font-size="23" font-weight="700" fill="#0f172a">Run 80 지표</text>
<text x="34.00" y="68.00" font-family="Arial, sans-serif" font-size="13" font-weight="400" fill="#475569">상태=generalizing / epochs= / steps=90.0 / 장치=mps / 초당 token=29375.310961</text>
<rect x="48" y="108" width="710" height="170" rx="8" fill="#f8fafc" stroke="#cbd5e1"/>
<text x="66.00" y="136.00" font-family="Arial, sans-serif" font-size="16" font-weight="700" fill="#0f172a">손실 요약</text>
<text x="66.00" y="176.00" font-family="Arial, sans-serif" font-size="12" font-weight="400" fill="#334155">초기 학습</text>
<rect x="193" y="162" width="480.00" height="18" rx="4" fill="#2563eb" opacity="0.82"/>
<text x="681.00" y="176.00" font-family="Arial, sans-serif" font-size="12" font-weight="400" fill="#0f172a">6.4290</text>
<text x="66.00" y="204.00" font-family="Arial, sans-serif" font-size="12" font-weight="400" fill="#334155">최종 학습</text>
<rect x="193" y="190" width="413.79" height="18" rx="4" fill="#2563eb" opacity="0.82"/>
<text x="614.79" y="204.00" font-family="Arial, sans-serif" font-size="12" font-weight="400" fill="#0f172a">5.5422</text>
<text x="66.00" y="232.00" font-family="Arial, sans-serif" font-size="12" font-weight="400" fill="#334155">초기 검증</text>
<rect x="193" y="218" width="479.48" height="18" rx="4" fill="#2563eb" opacity="0.82"/>
<text x="680.48" y="232.00" font-family="Arial, sans-serif" font-size="12" font-weight="400" fill="#0f172a">6.4220</text>
<text x="66.00" y="260.00" font-family="Arial, sans-serif" font-size="12" font-weight="400" fill="#334155">최종 검증</text>
<rect x="193" y="246" width="413.76" height="18" rx="4" fill="#2563eb" opacity="0.82"/>
<text x="614.76" y="260.00" font-family="Arial, sans-serif" font-size="12" font-weight="400" fill="#0f172a">5.5418</text>
<rect x="48" y="338" width="710" height="125" rx="8" fill="#f8fafc" stroke="#cbd5e1"/>
<text x="66.00" y="366.00" font-family="Arial, sans-serif" font-size="16" font-weight="700" fill="#0f172a">과적합 신호</text>
<text x="66.00" y="406.00" font-family="Arial, sans-serif" font-size="12" font-weight="400" fill="#334155">최종 gap</text>
<rect x="193" y="392" width="-1.12" height="18" rx="4" fill="#7c3aed" opacity="0.82"/>
<text x="199.88" y="406.00" font-family="Arial, sans-serif" font-size="12" font-weight="400" fill="#0f172a">-0.0004</text>
<text x="66.00" y="434.00" font-family="Arial, sans-serif" font-size="12" font-weight="400" fill="#334155">gap 변화</text>
<rect x="193" y="420" width="17.47" height="18" rx="4" fill="#7c3aed" opacity="0.82"/>
<text x="218.47" y="434.00" font-family="Arial, sans-serif" font-size="12" font-weight="400" fill="#0f172a">0.0065</text>
<text x="66.00" y="462.00" font-family="Arial, sans-serif" font-size="12" font-weight="400" fill="#334155">개선 불균형</text>
<rect x="193" y="448" width="17.47" height="18" rx="4" fill="#7c3aed" opacity="0.82"/>
<text x="218.47" y="462.00" font-family="Arial, sans-serif" font-size="12" font-weight="400" fill="#0f172a">0.0065</text>
<text x="66.00" y="490.00" font-family="Arial, sans-serif" font-size="12" font-weight="400" fill="#334155">과적합 점수</text>
<rect x="193" y="476" width="34.93" height="18" rx="4" fill="#7c3aed" opacity="0.82"/>
<text x="235.93" y="490.00" font-family="Arial, sans-serif" font-size="12" font-weight="400" fill="#0f172a">0.0131</text>
</svg>