<svg xmlns="http://www.w3.org/2000/svg" width="1100" height="620" viewBox="0 0 1100 620">
  <rect width="1100" height="620" fill="#f8fafc"/>
  <style>
    text { font-family: -apple-system, BlinkMacSystemFont, "Segoe UI", "Noto Sans KR", Arial, sans-serif; }
  </style>
<text x="48" y="58" font-size="29" font-weight="800" fill="#0f172a">Figure 4. Merge token이 한쪽으로 쏠렸는가?</text>
<text x="48" y="88" font-size="15" fill="#475569">질문: vocab 증가가 하나의 거대 token 집중으로 나타나는가, 아니면 tail token 증가로 나타나는가?</text>
<line x1="90" y1="145" x2="90" y2="465" stroke="#94a3b8"/>
<line x1="90" y1="465" x2="990" y2="465" stroke="#94a3b8"/>
<text x="90" y="131" font-size="13" fill="#475569">train token 비중</text>
<text x="910" y="509" font-size="13" fill="#475569">vocab size</text>
<circle cx="125.0" cy="451.3" r="5" fill="#2563eb"/>
<text x="95.0" y="439.3" font-size="12" fill="#2563eb">3.0%</text>
<circle cx="401.7" cy="450.7" r="5" fill="#2563eb"/>
<text x="371.7" y="438.7" font-size="12" fill="#2563eb">3.1%</text>
<circle cx="678.3" cy="450.4" r="5" fill="#2563eb"/>
<text x="648.3" y="438.4" font-size="12" fill="#2563eb">3.2%</text>
<circle cx="955.0" cy="450.1" r="5" fill="#2563eb"/>
<text x="925.0" y="438.1" font-size="12" fill="#2563eb">3.3%</text>
<polyline points="125.0,451.3 401.7,450.7 678.3,450.4 955.0,450.1" fill="none" stroke="#2563eb" stroke-width="4" stroke-linejoin="round" stroke-linecap="round"/>
<line x1="110" y1="510" x2="142" y2="510" stroke="#2563eb" stroke-width="4"/>
<text x="152" y="515" font-size="14" fill="#334155">top1</text>
<circle cx="125.0" cy="396.6" r="5" fill="#059669"/>
<circle cx="401.7" cy="393.6" r="5" fill="#059669"/>
<circle cx="678.3" cy="391.8" r="5" fill="#059669"/>
<circle cx="955.0" cy="390.6" r="5" fill="#059669"/>
<polyline points="125.0,396.6 401.7,393.6 678.3,391.8 955.0,390.6" fill="none" stroke="#059669" stroke-width="4" stroke-linejoin="round" stroke-linecap="round"/>
<line x1="300" y1="510" x2="332" y2="510" stroke="#059669" stroke-width="4"/>
<text x="342" y="515" font-size="14" fill="#334155">top10</text>
<circle cx="125.0" cy="266.7" r="5" fill="#7c3aed"/>
<circle cx="401.7" cy="274.0" r="5" fill="#7c3aed"/>
<circle cx="678.3" cy="274.5" r="5" fill="#7c3aed"/>
<circle cx="955.0" cy="274.6" r="5" fill="#7c3aed"/>
<polyline points="125.0,266.7 401.7,274.0 678.3,274.5 955.0,274.6" fill="none" stroke="#7c3aed" stroke-width="4" stroke-linejoin="round" stroke-linecap="round"/>
<line x1="490" y1="510" x2="522" y2="510" stroke="#7c3aed" stroke-width="4"/>
<text x="532" y="515" font-size="14" fill="#334155">top100</text>
<circle cx="125.0" cy="191.1" r="5" fill="#ea580c"/>
<text x="95.0" y="179.1" font-size="12" fill="#ea580c">59.9%</text>
<circle cx="401.7" cy="182.7" r="5" fill="#ea580c"/>
<text x="371.7" y="170.7" font-size="12" fill="#ea580c">61.8%</text>
<circle cx="678.3" cy="181.6" r="5" fill="#ea580c"/>
<text x="648.3" y="169.6" font-size="12" fill="#ea580c">62.0%</text>
<circle cx="955.0" cy="181.3" r="5" fill="#ea580c"/>
<text x="925.0" y="169.3" font-size="12" fill="#ea580c">62.1%</text>
<polyline points="125.0,191.1 401.7,182.7 678.3,181.6 955.0,181.3" fill="none" stroke="#ea580c" stroke-width="4" stroke-linejoin="round" stroke-linecap="round"/>
<line x1="680" y1="510" x2="712" y2="510" stroke="#ea580c" stroke-width="4"/>
<text x="722" y="515" font-size="14" fill="#334155">merge token</text>
<text x="97.0" y="493" font-size="13" fill="#334155">V6k</text>
<text x="373.7" y="493" font-size="13" fill="#334155">V8k</text>
<text x="650.3" y="493" font-size="13" fill="#334155">V10k</text>
<text x="927.0" y="493" font-size="13" fill="#334155">V12k</text>
<rect x="48" y="545" width="1004" height="50" rx="8" fill="#eef2ff" stroke="#c7d2fe"/>
<text x="70" y="576" font-size="15" fill="#3730a3">해석: top1은 약 3%대라 한 token 독점은 아니다. 더 큰 문제는 20회 이하 tail type 증가와 긴 token row의 학습 부족 가능성이다.</text>
</svg>
